<?xml version="1.0" standalone="no"?>
<!DOCTYPE svg PUBLIC "-//W3C//DTD SVG 20010904//EN"
 "http://www.w3.org/TR/2001/REC-SVG-20010904/DTD/svg10.dtd">
<svg version="1.0" xmlns="http://www.w3.org/2000/svg"
 width="971.000000pt" height="769.000000pt" viewBox="0 0 971.000000 769.000000"
 preserveAspectRatio="xMidYMid meet">

<g transform="translate(0.000000,769.000000) scale(0.100000,-0.100000)"
fill="#000000" stroke="none">
<path d="M6940 5764 c-165 -34 -268 -58 -303 -70 -20 -8 -45 -14 -54 -14 -20
0 -133 -33 -208 -60 -184 -68 -298 -112 -350 -138 -33 -16 -76 -35 -95 -42
-36 -14 -152 -73 -320 -163 -52 -28 -160 -92 -240 -142 -151 -94 -155 -96
-259 -173 -35 -26 -81 -58 -101 -72 -102 -67 -414 -318 -535 -430 -27 -26 -86
-79 -130 -120 -44 -40 -130 -125 -192 -188 -71 -73 -117 -113 -126 -109 -8 3
-31 36 -52 72 -21 37 -50 86 -65 109 -15 22 -46 77 -70 121 -24 44 -58 103
-76 130 -31 49 -87 145 -101 175 -4 8 -20 38 -36 65 -17 28 -42 73 -57 100
-15 28 -54 98 -88 157 -34 58 -62 108 -62 111 0 3 -32 60 -72 128 -69 120
-126 219 -159 278 -46 84 -99 168 -116 183 -23 21 -47 27 -333 77 -106 19
-180 23 -194 12 -11 -9 -13 -288 -11 -1566 1 -1352 3 -1558 16 -1570 8 -9 60
-24 114 -35 55 -11 152 -32 215 -46 63 -15 131 -27 150 -28 l35 -1 3 1048 c2
828 5 1047 15 1047 10 -1 94 -131 176 -274 13 -22 48 -84 79 -136 30 -52 65
-113 77 -135 58 -103 111 -194 148 -254 23 -37 47 -76 54 -87 14 -22 78 -133
106 -184 10 -19 25 -42 33 -51 8 -8 14 -20 14 -25 0 -5 15 -32 33 -59 18 -28
45 -71 60 -97 28 -48 53 -78 65 -78 10 0 53 41 82 79 45 58 84 104 161 191 42
47 94 105 115 129 182 205 606 592 830 757 16 12 70 52 119 89 102 77 288 202
385 260 36 21 67 41 70 44 3 3 37 22 75 42 39 20 131 68 205 107 151 79 410
172 480 172 36 0 48 -6 76 -36 l34 -35 0 -150 c0 -169 -22 -294 -67 -389 -34
-70 -147 -180 -228 -221 -33 -17 -73 -39 -90 -49 -37 -22 -151 -82 -350 -185
-298 -153 -341 -177 -375 -206 l-35 -30 -3 -241 c-2 -158 1 -245 7 -251 8 -8
19 -5 39 10 15 11 52 33 81 48 29 14 101 55 160 90 167 99 429 230 511 255 41
13 105 25 142 28 92 6 129 -17 171 -107 30 -64 31 -72 35 -237 4 -151 2 -183
-18 -265 -25 -110 -42 -132 -115 -153 -28 -9 -69 -23 -91 -33 -21 -9 -66 -24
-99 -34 -118 -33 -469 -199 -599 -283 -28 -18 -89 -55 -134 -82 -46 -27 -134
-87 -195 -133 -154 -115 -193 -141 -201 -134 -3 4 -6 369 -6 813 0 444 -3 828
-6 854 -4 29 -12 46 -20 46 -18 0 -338 -318 -443 -440 l-81 -94 0 -905 0 -904
112 -114 c62 -63 128 -123 147 -134 l33 -20 57 63 c112 126 319 325 426 411
107 85 329 238 450 309 187 110 422 212 675 293 143 45 360 101 490 124 100
19 140 33 156 55 12 17 14 93 14 446 0 234 -5 454 -10 490 -36 236 -124 408
-256 505 -70 52 -71 48 24 143 83 83 104 116 160 242 8 19 18 42 22 50 10 21
37 153 49 237 15 96 15 987 1 1014 -13 23 -59 24 -160 3z"/>
<path d="M1796 5268 c-15 -8 -16 -148 -16 -1704 0 -1554 1 -1695 16 -1701 16
-6 241 9 399 27 142 16 582 23 695 10 450 -48 576 -70 865 -147 172 -46 262
-73 310 -94 62 -26 103 -42 130 -50 29 -8 28 -6 -14 29 -24 20 -62 48 -86 62
-23 14 -71 45 -106 70 -35 25 -73 50 -84 56 -67 38 -266 142 -295 156 -121 55
-198 88 -205 88 -4 0 -21 7 -38 15 -59 27 -217 78 -352 114 -173 45 -203 52
-300 66 -184 28 -239 34 -363 41 -71 4 -126 12 -130 18 -4 6 -8 665 -9 1465
-1 1189 -4 1456 -15 1466 -16 16 -377 27 -402 13z"/>
<path d="M7453 5270 l-23 -9 0 -1463 c0 -899 -4 -1469 -10 -1478 -7 -12 -45
-16 -183 -21 -96 -3 -178 -9 -183 -12 -5 -3 -45 -10 -89 -16 -146 -20 -399
-84 -575 -146 -213 -76 -260 -96 -489 -213 -170 -86 -271 -146 -279 -164 -2
-5 -8 -8 -13 -8 -7 0 -127 -83 -168 -117 -2 -1 -1 -6 2 -9 4 -4 17 0 29 8 13
8 43 20 68 27 25 6 54 16 65 21 23 10 146 47 280 84 129 36 427 92 585 111 74
9 169 21 210 28 48 8 188 12 390 11 258 -1 349 -5 505 -23 105 -12 211 -21
235 -19 l45 3 3 1694 c1 1006 -2 1699 -7 1704 -12 12 -370 18 -398 7z"/>
</g>
</svg>
